<mxfile host="Electron" agent="Mozilla/5.0 (X11; Linux x86_64) AppleWebKit/537.36 (KHTML, like Gecko) draw.io/26.0.4 Chrome/128.0.6613.186 Electron/32.2.5 Safari/537.36" version="26.0.4">
  <diagram name="Page-1" id="mghC7TmXXagotDrV-Jb_">
    <mxGraphModel dx="1114" dy="1198" grid="1" gridSize="10" guides="1" tooltips="1" connect="1" arrows="1" fold="1" page="1" pageScale="1" pageWidth="850" pageHeight="1100" math="0" shadow="0">
      <root>
        <mxCell id="0" />
        <mxCell id="1" parent="0" />
        <mxCell id="co79-Wh8YQBAHyomBbtZ-9" value="register&lt;div&gt;&lt;b&gt;(INSERT (DML))&lt;/b&gt;&lt;/div&gt;" style="edgeStyle=orthogonalEdgeStyle;rounded=0;orthogonalLoop=1;jettySize=auto;html=1;" edge="1" parent="1" source="co79-Wh8YQBAHyomBbtZ-1" target="co79-Wh8YQBAHyomBbtZ-2">
          <mxGeometry relative="1" as="geometry" />
        </mxCell>
        <mxCell id="co79-Wh8YQBAHyomBbtZ-1" value="User" style="sketch=0;outlineConnect=0;fontColor=#232F3E;gradientColor=none;fillColor=#232F3D;strokeColor=none;dashed=0;verticalLabelPosition=middle;verticalAlign=middle;align=left;html=1;fontSize=12;fontStyle=0;aspect=fixed;pointerEvents=1;shape=mxgraph.aws4.user;labelPosition=right;spacingLeft=5;" vertex="1" parent="1">
          <mxGeometry x="453" y="261" width="78" height="78" as="geometry" />
        </mxCell>
        <mxCell id="co79-Wh8YQBAHyomBbtZ-8" value="invoke" style="edgeStyle=orthogonalEdgeStyle;rounded=0;orthogonalLoop=1;jettySize=auto;html=1;" edge="1" parent="1" source="co79-Wh8YQBAHyomBbtZ-2" target="co79-Wh8YQBAHyomBbtZ-3">
          <mxGeometry x="0.0205" y="-29" relative="1" as="geometry">
            <mxPoint as="offset" />
          </mxGeometry>
        </mxCell>
        <mxCell id="co79-Wh8YQBAHyomBbtZ-2" value="RDS DB&lt;div&gt;Instance&lt;/div&gt;" style="sketch=0;outlineConnect=0;fontColor=#232F3E;gradientColor=none;fillColor=#C925D1;strokeColor=none;dashed=0;verticalLabelPosition=middle;verticalAlign=middle;align=left;html=1;fontSize=12;fontStyle=0;aspect=fixed;pointerEvents=1;shape=mxgraph.aws4.rds_instance;labelPosition=right;spacingLeft=5;" vertex="1" parent="1">
          <mxGeometry x="453" y="441" width="78" height="78" as="geometry" />
        </mxCell>
        <mxCell id="co79-Wh8YQBAHyomBbtZ-7" value="send Email" style="edgeStyle=orthogonalEdgeStyle;rounded=0;orthogonalLoop=1;jettySize=auto;html=1;" edge="1" parent="1" source="co79-Wh8YQBAHyomBbtZ-3" target="co79-Wh8YQBAHyomBbtZ-4">
          <mxGeometry x="-0.087" y="-39" relative="1" as="geometry">
            <mxPoint as="offset" />
          </mxGeometry>
        </mxCell>
        <mxCell id="co79-Wh8YQBAHyomBbtZ-3" value="Lambda&lt;div&gt;Function&lt;/div&gt;" style="sketch=0;outlineConnect=0;fontColor=#232F3E;gradientColor=none;fillColor=#ED7100;strokeColor=none;dashed=0;verticalLabelPosition=middle;verticalAlign=middle;align=left;html=1;fontSize=12;fontStyle=0;aspect=fixed;pointerEvents=1;shape=mxgraph.aws4.lambda_function;labelPosition=right;spacingBottom=-1;spacingLeft=5;" vertex="1" parent="1">
          <mxGeometry x="468" y="621" width="48" height="48" as="geometry" />
        </mxCell>
        <mxCell id="co79-Wh8YQBAHyomBbtZ-10" style="edgeStyle=orthogonalEdgeStyle;rounded=0;orthogonalLoop=1;jettySize=auto;html=1;" edge="1" parent="1" source="co79-Wh8YQBAHyomBbtZ-4" target="co79-Wh8YQBAHyomBbtZ-1">
          <mxGeometry relative="1" as="geometry">
            <Array as="points">
              <mxPoint x="343" y="800" />
              <mxPoint x="343" y="301" />
            </Array>
          </mxGeometry>
        </mxCell>
        <mxCell id="co79-Wh8YQBAHyomBbtZ-4" value="Amazon SES" style="sketch=0;points=[[0,0,0],[0.25,0,0],[0.5,0,0],[0.75,0,0],[1,0,0],[0,1,0],[0.25,1,0],[0.5,1,0],[0.75,1,0],[1,1,0],[0,0.25,0],[0,0.5,0],[0,0.75,0],[1,0.25,0],[1,0.5,0],[1,0.75,0]];outlineConnect=0;fontColor=#232F3E;fillColor=#DD344C;strokeColor=#ffffff;dashed=0;verticalLabelPosition=bottom;verticalAlign=top;align=center;html=1;fontSize=12;fontStyle=0;aspect=fixed;shape=mxgraph.aws4.resourceIcon;resIcon=mxgraph.aws4.simple_email_service;" vertex="1" parent="1">
          <mxGeometry x="453" y="761" width="78" height="78" as="geometry" />
        </mxCell>
        <mxCell id="co79-Wh8YQBAHyomBbtZ-5" value="" style="sketch=0;outlineConnect=0;fontColor=#232F3E;gradientColor=none;fillColor=#232F3D;strokeColor=none;dashed=0;verticalLabelPosition=bottom;verticalAlign=top;align=center;html=1;fontSize=12;fontStyle=0;aspect=fixed;pointerEvents=1;shape=mxgraph.aws4.email_2;" vertex="1" parent="1">
          <mxGeometry x="503" y="701" width="31.84" height="20" as="geometry" />
        </mxCell>
        <mxCell id="co79-Wh8YQBAHyomBbtZ-6" value="Permissions" style="sketch=0;outlineConnect=0;fontColor=#232F3E;gradientColor=none;fillColor=#DD344C;strokeColor=none;dashed=0;verticalLabelPosition=bottom;verticalAlign=top;align=center;html=1;fontSize=12;fontStyle=0;aspect=fixed;pointerEvents=1;shape=mxgraph.aws4.permissions;" vertex="1" parent="1">
          <mxGeometry x="523" y="551" width="23.84" height="30" as="geometry" />
        </mxCell>
        <mxCell id="co79-Wh8YQBAHyomBbtZ-11" value="" style="sketch=0;outlineConnect=0;fontColor=#232F3E;gradientColor=none;fillColor=#232F3D;strokeColor=none;dashed=0;verticalLabelPosition=bottom;verticalAlign=top;align=center;html=1;fontSize=12;fontStyle=0;aspect=fixed;pointerEvents=1;shape=mxgraph.aws4.email_2;" vertex="1" parent="1">
          <mxGeometry x="303" y="521" width="31.84" height="20" as="geometry" />
        </mxCell>
      </root>
    </mxGraphModel>
  </diagram>
</mxfile>
